<?xml version="1.0" encoding="UTF-8"?>
<svg xmlns="http://www.w3.org/2000/svg" xmlns:xlink="http://www.w3.org/1999/xlink" width="375pt" height="374.999991pt" viewBox="0 0 375 374.999991" version="1.2">
<defs>
<clipPath id="clip1">
  <path d="M 276 344 L 284.4375 344 L 284.4375 359 L 276 359 Z M 276 344 "/>
</clipPath>
</defs>
<g id="surface1">
<path style=" stroke:none;fill-rule:evenodd;fill:#fff;fill-opacity:1;" d="M 274.84375 250.214844 C 276.976562 252.769531 275.269531 259.15625 275.695312 263.414062 C 273.988281 264.265625 271.003906 264.691406 268.871094 265.117188 C 268.871094 296.625 267.167969 328.988281 269.296875 358.367188 C 267.59375 357.941406 267.167969 358.367188 265.460938 358.367188 C 265.460938 328.136719 266.3125 297.050781 265.035156 265.96875 C 262.476562 265.96875 260.34375 267.671875 258.210938 267.246094 C 258.210938 262.988281 258.210938 258.730469 258.210938 254.472656 C 263.753906 252.769531 269.726562 251.917969 274.84375 250.214844 Z M 274.84375 250.214844 "/>
<path style=" stroke:none;fill-rule:evenodd;fill:#fff;fill-opacity:1;" d="M 248.402344 269.375 C 247.125 266.820312 246.695312 265.117188 244.992188 263.414062 C 241.578125 260.859375 233.902344 259.15625 230.917969 260.007812 C 227.507812 261.285156 222.816406 268.949219 220.683594 271.503906 C 217.699219 275.761719 216.417969 281.722656 213.433594 286.40625 C 209.59375 292.367188 203.199219 295.347656 198.507812 297.902344 C 199.785156 285.980469 201.492188 272.355469 202.34375 261.285156 C 205.332031 256.601562 209.59375 252.769531 212.152344 247.65625 C 208.742188 238.289062 204.90625 229.347656 201.917969 219.980469 C 204.90625 219.554688 205.757812 215.296875 205.332031 212.742188 C 203.199219 212.742188 201.492188 212.742188 199.359375 212.742188 C 195.097656 204.226562 192.109375 196.988281 189.550781 187.191406 C 188.699219 184.636719 187.417969 181.230469 187.417969 179.101562 C 187.417969 176.546875 188.699219 173.140625 189.125 169.734375 C 189.550781 166.328125 190.40625 162.921875 190.832031 159.941406 C 192.109375 153.128906 192.964844 145.890625 194.242188 140.355469 C 195.097656 137.800781 196.800781 134.820312 196.800781 132.265625 C 196.800781 130.984375 195.097656 129.707031 195.097656 128.003906 C 194.667969 125.449219 195.523438 124.171875 195.523438 122.042969 C 193.816406 118.636719 190.40625 116.082031 189.125 112.25 C 186.992188 105.863281 187.417969 97.773438 184.859375 90.960938 C 183.15625 91.386719 181.023438 93.089844 179.316406 92.664062 C 177.613281 87.128906 178.464844 82.871094 178.890625 77.335938 C 178.890625 75.207031 178.464844 73.074219 178.890625 71.371094 C 179.742188 67.113281 183.582031 62.003906 186.140625 57.746094 C 193.390625 43.269531 200.214844 29.21875 207.035156 16.019531 C 204.90625 15.59375 201.917969 13.035156 199.785156 14.3125 C 185.289062 42.417969 169.082031 70.945312 154.15625 99.476562 C 151.171875 105.011719 147.332031 109.695312 146.90625 116.933594 C 146.054688 117.785156 143.921875 117.785156 143.496094 119.0625 C 143.921875 125.023438 142.214844 130.132812 139.230469 131.839844 C 139.230469 130.558594 140.082031 128.429688 139.230469 127.578125 C 136.671875 126.726562 134.113281 126.726562 131.128906 128.003906 C 126.863281 129.707031 120.46875 136.097656 117.054688 140.355469 C 113.21875 145.464844 109.804688 152.277344 111.9375 158.664062 C 113.21875 159.515625 116.628906 159.089844 117.480469 160.792969 C 118.335938 162.496094 114.496094 165.050781 113.644531 166.753906 C 109.804688 174.417969 111.085938 184.210938 114.070312 190.175781 C 117.480469 196.136719 119.613281 198.691406 125.585938 201.671875 C 126.863281 206.355469 131.554688 208.910156 132.832031 214.019531 C 134.113281 218.703125 133.261719 225.941406 134.113281 232.753906 C 134.539062 237.011719 136.246094 241.269531 136.671875 245.527344 C 137.097656 249.789062 137.097656 254.472656 137.097656 259.15625 C 137.097656 263.414062 136.246094 268.949219 137.097656 271.929688 C 137.523438 273.632812 139.230469 273.632812 139.65625 275.335938 C 136.671875 283.425781 138.804688 293.21875 136.671875 302.160156 C 135.394531 307.273438 131.980469 311.53125 131.128906 315.789062 C 129.847656 316.214844 128.570312 316.640625 127.289062 317.492188 C 127.289062 331.542969 126.863281 346.445312 127.714844 359.644531 C 131.980469 360.496094 136.671875 360.921875 141.363281 361.773438 C 146.480469 347.722656 150.746094 332.394531 157.140625 319.621094 C 158.421875 319.195312 159.273438 318.769531 160.554688 317.917969 C 164.390625 311.53125 165.246094 302.585938 167.804688 294.921875 C 170.363281 299.179688 170.363281 305.566406 169.933594 311.957031 C 169.933594 313.234375 168.65625 314.9375 169.082031 316.640625 C 169.507812 318.34375 171.640625 319.621094 171.640625 321.324219 C 172.066406 322.601562 171.214844 324.304688 171.214844 325.582031 C 170.789062 335.800781 170.363281 348.148438 169.507812 359.644531 C 175.050781 358.367188 184.007812 360.921875 186.566406 357.089844 C 191.683594 359.644531 201.492188 359.644531 209.167969 359.644531 C 212.152344 359.644531 215.566406 360.496094 217.269531 358.367188 C 216.84375 351.554688 204.90625 355.386719 200.640625 351.128906 C 201.492188 348.574219 204.476562 347.296875 205.757812 344.316406 C 206.609375 341.761719 205.332031 337.929688 207.464844 335.375 C 210.449219 338.78125 212.152344 343.890625 214.710938 348.574219 C 217.269531 352.40625 220.683594 358.367188 224.949219 359.21875 C 227.933594 360.070312 232.625 359.21875 236.035156 359.21875 C 238.167969 354.535156 233.902344 351.128906 228.359375 352.832031 C 226.226562 350.703125 224.09375 347.296875 222.816406 345.167969 C 224.519531 345.167969 226.226562 347.722656 228.785156 348.148438 C 232.625 349 237.316406 346.871094 236.035156 344.316406 C 235.183594 342.1875 228.785156 341.761719 227.078125 339.632812 C 225.800781 337.929688 225.800781 335.800781 224.519531 333.246094 C 223.667969 331.542969 221.960938 328.988281 221.960938 326.433594 C 222.390625 323.878906 225.800781 321.324219 227.933594 319.195312 C 230.492188 316.640625 233.050781 314.085938 233.476562 311.105469 C 233.902344 307.699219 233.050781 304.714844 233.050781 301.308594 C 232.625 295.347656 233.476562 290.238281 236.460938 285.128906 C 241.578125 282.574219 248.828125 286.40625 253.519531 284.703125 C 256.078125 283.425781 256.929688 279.59375 258.210938 277.039062 C 256.929688 272.78125 251.8125 271.929688 248.402344 269.375 Z M 168.230469 144.1875 C 163.113281 148.019531 158.847656 152.277344 153.730469 155.683594 C 152.023438 154.832031 149.039062 155.257812 147.332031 154.832031 C 147.332031 153.128906 148.613281 151.851562 149.039062 150.574219 C 148.613281 149.296875 147.761719 148.871094 147.332031 147.59375 C 150.320312 142.910156 154.15625 139.503906 154.582031 133.542969 C 154.582031 131.835938 153.304688 130.132812 153.730469 128.429688 C 154.15625 125.875 157.566406 124.171875 157.996094 122.042969 C 156.714844 119.0625 157.140625 115.65625 159.699219 114.378906 C 160.125 113.101562 158.847656 113.527344 159.273438 111.824219 C 162.6875 105.863281 165.671875 99.476562 169.082031 93.515625 C 171.214844 98.625 171.640625 105.863281 173.347656 111.398438 C 172.066406 119.0625 170.363281 127.578125 173.773438 133.96875 C 171.640625 137.800781 169.933594 140.78125 168.230469 144.1875 Z M 168.230469 144.1875 "/>
<g clip-path="url(#clip1)" clip-rule="nonzero">
<path style=" stroke:none;fill-rule:nonzero;fill:#fff;fill-opacity:1;" d="M 283.371094 344.742188 C 284.652344 344.742188 285.503906 345.167969 286.78125 345.59375 C 288.0625 346.019531 288.914062 346.871094 289.339844 348.148438 C 289.769531 349.425781 290.195312 350.277344 290.195312 351.554688 C 290.195312 352.832031 289.769531 354.109375 289.339844 354.960938 C 288.914062 356.238281 288.0625 357.089844 286.78125 357.515625 C 285.503906 357.941406 284.652344 358.367188 283.371094 358.367188 C 282.09375 358.367188 280.8125 357.941406 279.960938 357.515625 C 278.679688 357.089844 277.828125 356.238281 277.402344 354.960938 C 276.976562 353.683594 276.546875 352.832031 276.546875 351.554688 C 276.546875 350.277344 276.976562 349 277.402344 348.148438 C 277.828125 346.871094 278.679688 346.019531 279.960938 345.59375 C 280.8125 344.742188 282.09375 344.742188 283.371094 344.742188 Z M 283.371094 346.019531 C 282.519531 346.019531 281.664062 346.445312 280.8125 346.871094 C 279.960938 347.296875 279.105469 348.148438 278.679688 349 C 277.828125 349.851562 277.828125 350.703125 277.828125 351.554688 C 277.828125 352.40625 278.253906 353.257812 278.679688 354.535156 C 279.105469 355.386719 279.960938 356.238281 280.8125 356.664062 C 281.664062 357.089844 282.519531 357.515625 283.371094 357.515625 C 284.222656 357.515625 285.078125 357.089844 285.929688 356.664062 C 286.78125 356.238281 287.636719 355.386719 288.0625 354.535156 C 288.488281 353.683594 288.914062 352.832031 288.914062 351.554688 C 288.914062 350.703125 288.488281 349.851562 288.0625 348.574219 C 287.636719 347.722656 286.78125 346.871094 285.929688 346.445312 C 285.078125 346.445312 284.222656 346.019531 283.371094 346.019531 Z M 279.960938 355.386719 L 279.960938 347.722656 L 281.664062 347.722656 C 282.945312 347.722656 283.796875 347.722656 284.222656 347.722656 C 284.652344 347.722656 285.078125 347.722656 285.503906 348.148438 C 285.929688 348.148438 285.929688 348.574219 286.355469 349 C 286.355469 349.425781 286.78125 349.851562 286.78125 349.851562 C 286.78125 350.277344 286.78125 350.703125 286.355469 351.128906 C 285.929688 351.554688 285.503906 351.554688 285.078125 351.980469 C 285.503906 351.980469 285.503906 351.980469 285.503906 352.40625 C 285.503906 352.40625 285.929688 352.832031 285.929688 352.832031 C 285.929688 352.832031 286.355469 353.257812 286.355469 353.683594 L 287.210938 354.960938 L 285.503906 354.960938 L 285.078125 353.683594 C 284.652344 352.832031 284.222656 352.40625 284.222656 351.980469 C 283.796875 351.980469 283.796875 351.554688 283.371094 351.554688 L 282.945312 351.554688 L 282.945312 354.535156 L 279.960938 354.535156 Z M 281.664062 351.128906 L 282.09375 351.128906 C 282.945312 351.128906 283.371094 351.128906 283.796875 351.128906 C 283.796875 351.128906 284.222656 351.128906 284.222656 350.703125 C 284.222656 350.703125 284.222656 350.277344 284.222656 350.277344 C 284.222656 350.277344 284.222656 349.851562 284.222656 349.851562 C 284.222656 349.851562 283.796875 349.425781 283.796875 349.425781 C 283.371094 349.425781 282.945312 349.425781 282.09375 349.425781 L 281.664062 349.425781 Z M 281.664062 351.128906 "/>
</g>
</g>
</svg>
